{
  "accessors": [
    {
      "bufferView": 2,
      "componentType": 5126,
      "count": 107,
      "max": [
        2.0684561729431152,
        17.770862579345703,
        10.241808891296387
      ],
      "min": [
        -0.054691314697265625,
        17.770862579345703,
        -10.237582206726074
      ],
      "type": "VEC3"
    },
    {
      "bufferView": 2,
      "byteOffset": 1284,
      "componentType": 5126,
      "count": 107,
      "max": [
        0.0,
        1.0,
        0.0
      ],
      "min": [
        0.0,
        1.0,
        -1.8385673001830583e-06
      ],
      "type": "VEC3"
    },
    {
      "bufferView": 3,
      "componentType": 5126,
      "count": 107,
      "max": [
        1.0,
        3.924373846719842e-13,
        5.0053722588927485e-06,
        1.0
      ],
      "min": [
        1.0,
        -3.859060640487577e-12,
        -7.46584828448249e-06,
        1.0
      ],
      "type": "VEC4"
    },
    {
      "bufferView": 1,
      "componentType": 5126,
      "count": 107,
      "max": [
        0.7914696931838989,
        0.550915002822876
      ],
      "min": [
        0.7397574186325073,
        0.05210992693901062
      ],
      "type": "VEC2"
    },
    {
      "bufferView": 0,
      "componentType": 5125,
      "count": 480,
      "type": "SCALAR"
    },
    {
      "bufferView": 2,
      "byteOffset": 2568,
      "componentType": 5126,
      "count": 7588,
      "max": [
        30.128265380859375,
        461.5052490234375,
        255.88058471679688
      ],
      "min": [
        -36.766685485839844,
        365.90118408203125,
        -254.99728393554688
      ],
      "type": "VEC3"
    },
    {
      "bufferView": 2,
      "byteOffset": 93624,
      "componentType": 5126,
      "count": 7588,
      "max": [
        0.9999333620071411,
        0.9996997117996216,
        0.9994077682495117
      ],
      "min": [
        -0.9996576309204102,
        -0.9994854927062988,
        -0.9967331886291504
      ],
      "type": "VEC3"
    },
    {
      "bufferView": 3,
      "byteOffset": 1712,
      "componentType": 5126,
      "count": 7588,
      "max": [
        0.9999493360519409,
        0.9999967217445374,
        0.9999385476112366,
        1.0
      ],
      "min": [
        -0.9998610019683838,
        -0.9984930157661438,
        -0.9999116063117981,
        -1.0
      ],
      "type": "VEC4"
    },
    {
      "bufferView": 1,
      "byteOffset": 856,
      "componentType": 5126,
      "count": 7588,
      "max": [
        1.0,
        0.9998270273208618
      ],
      "min": [
        0.0,
        0.0
      ],
      "type": "VEC2"
    },
    {
      "bufferView": 0,
      "byteOffset": 1920,
      "componentType": 5125,
      "count": 20880,
      "type": "SCALAR"
    },
    {
      "bufferView": 2,
      "byteOffset": 184680,
      "componentType": 5126,
      "count": 1292,
      "max": [
        14.062019348144531,
        421.852294921875,
        135.53533935546875
      ],
      "min": [
        -19.77056884765625,
        320.98193359375,
        -127.16017150878906
      ],
      "type": "VEC3"
    },
    {
      "bufferView": 2,
      "byteOffset": 200184,
      "componentType": 5126,
      "count": 1292,
      "max": [
        0.9998676180839539,
        0.990020215511322,
        0.9941297173500061
      ],
      "min": [
        -0.9998676180839539,
        -0.9608979225158691,
        -0.9995403289794922
      ],
      "type": "VEC3"
    },
    {
      "bufferView": 3,
      "byteOffset": 123120,
      "componentType": 5126,
      "count": 1292,
      "max": [
        0.9999973177909851,
        0.9899141192436218,
        0.9999499917030334,
        1.0
      ],
      "min": [
        -0.998207151889801,
        -0.980803906917572,
        -0.9998676180839539,
        1.0
      ],
      "type": "VEC4"
    },
    {
      "bufferView": 1,
      "byteOffset": 61560,
      "componentType": 5126,
      "count": 1292,
      "max": [
        0.9990020990371704,
        0.9453645944595337
      ],
      "min": [
        0.0009980041068047285,
        0.0009444201714359224
      ],
      "type": "VEC2"
    },
    {
      "bufferView": 0,
      "byteOffset": 85440,
      "componentType": 5125,
      "count": 3480,
      "type": "SCALAR"
    },
    {
      "bufferView": 2,
      "byteOffset": 215688,
      "componentType": 5126,
      "count": 2889,
      "max": [
        1.7110977172851563,
        623.3389282226563,
        14.161067008972168
      ],
      "min": [
        -3.289093017578125,
        554.3418579101563,
        -14.15684986114502
      ],
      "type": "VEC3"
    },
    {
      "bufferView": 2,
      "byteOffset": 250356,
      "componentType": 5126,
      "count": 2889,
      "max": [
        1.0,
        1.0,
        1.0
      ],
      "min": [
        -1.0,
        -1.0,
        -1.0
      ],
      "type": "VEC3"
    },
    {
      "bufferView": 3,
      "byteOffset": 143792,
      "componentType": 5126,
      "count": 2889,
      "max": [
        1.0,
        1.0,
        0.7847132086753845,
        1.0
      ],
      "min": [
        -1.0,
        -1.0,
        -1.0,
        -1.0
      ],
      "type": "VEC4"
    },
    {
      "bufferView": 1,
      "byteOffset": 71896,
      "componentType": 5126,
      "count": 2889,
      "max": [
        0.9980079531669617,
        0.9083821177482605
      ],
      "min": [
        0.0019920319318771362,
        0.0018131380202248693
      ],
      "type": "VEC2"
    },
    {
      "bufferView": 0,
      "byteOffset": 99360,
      "componentType": 5125,
      "count": 12726,
      "type": "SCALAR"
    },
    {
      "bufferView": 2,
      "byteOffset": 285024,
      "componentType": 5126,
      "count": 7081,
      "max": [
        147.59735107421875,
        774.633056640625,
        491.6287536621094
      ],
      "min": [
        -152.88336181640625,
        3.003324508666992,
        -491.6245422363281
      ],
      "type": "VEC3"
    },
    {
      "bufferView": 2,
      "byteOffset": 369996,
      "componentType": 5126,
      "count": 7081,
      "max": [
        1.0,
        1.0,
        1.0
      ],
      "min": [
        -1.0,
        -1.0,
        -1.0
      ],
      "type": "VEC3"
    },
    {
      "bufferView": 3,
      "byteOffset": 190016,
      "componentType": 5126,
      "count": 7081,
      "max": [
        1.0,
        1.0,
        1.0,
        1.0
      ],
      "min": [
        -0.8090178966522217,
        -1.0,
        -1.0,
        1.0
      ],
      "type": "VEC4"
    },
    {
      "bufferView": 1,
      "byteOffset": 95008,
      "componentType": 5126,
      "count": 7081,
      "max": [
        0.9984580278396606,
        1.0
      ],
      "min": [
        0.0,
        0.0
      ],
      "type": "VEC2"
    },
    {
      "bufferView": 0,
      "byteOffset": 150264,
      "componentType": 5125,
      "count": 24546,
      "type": "SCALAR"
    },
    {
      "bufferView": 2,
      "byteOffset": 454968,
      "componentType": 5126,
      "count": 9887,
      "max": [
        155.08432006835938,
        205.78346252441406,
        253.12240600585938
      ],
      "min": [
        36.504188537597656,
        45.661460876464844,
        -246.80703735351563
      ],
      "type": "VEC3"
    },
    {
      "bufferView": 2,
      "byteOffset": 573612,
      "componentType": 5126,
      "count": 9887,
      "max": [
        0.9998300075531006,
        0.999747097492218,
        0.9999347925186157
      ],
      "min": [
        -0.9999701976776123,
        -0.9996009469032288,
        -0.999908983707428
      ],
      "type": "VEC3"
    },
    {
      "bufferView": 3,
      "byteOffset": 303312,
      "componentType": 5126,
      "count": 9887,
      "max": [
        0.9999988079071045,
        0.9999997615814209,
        0.9999969601631165,
        1.0
      ],
      "min": [
        -0.9999093413352966,
        -0.9999823570251465,
        -0.9999947547912598,
        -1.0
      ],
      "type": "VEC4"
    },
    {
      "bufferView": 1,
      "byteOffset": 151656,
      "componentType": 5126,
      "count": 9887,
      "max": [
        1.0,
        0.999574601650238
      ],
      "min": [
        0.0,
        0.0
      ],
      "type": "VEC2"
    },
    {
      "bufferView": 0,
      "byteOffset": 248448,
      "componentType": 5125,
      "count": 32184,
      "type": "SCALAR"
    }
  ],
  "asset": {
    "extras": {
      "author": "ReeTesh_7338 (https://sketchfab.com/ReeTesh_7338)",
      "license": "CC-BY-4.0 (http://creativecommons.org/licenses/by/4.0/)",
      "source": "https://sketchfab.com/3d-models/tori-gate-game-asset-f4758ba5820e4398b5b60c70c2798881",
      "title": "Tori Gate Game asset"
    },
    "generator": "Sketchfab-16.53.0",
    "version": "2.0"
  },
  "bufferViews": [
    {
      "buffer": 0,
      "byteLength": 377184,
      "name": "floatBufferViews",
      "target": 34963
    },
    {
      "buffer": 0,
      "byteLength": 230752,
      "byteOffset": 377184,
      "byteStride": 8,
      "name": "floatBufferViews",
      "target": 34962
    },
    {
      "buffer": 0,
      "byteLength": 692256,
      "byteOffset": 607936,
      "byteStride": 12,
      "name": "floatBufferViews",
      "target": 34962
    },
    {
      "buffer": 0,
      "byteLength": 461504,
      "byteOffset": 1300192,
      "byteStride": 16,
      "name": "floatBufferViews",
      "target": 34962
    }
  ],
  "buffers": [
    {
      "byteLength": 1761696,
      "uri": "scene.bin"
    }
  ],
  "images": [
    {
      "uri": "textures/lambert3_baseColor.png"
    },
    {
      "uri": "textures/lambert3_metallicRoughness.png"
    },
    {
      "uri": "textures/lambert3_normal.png"
    },
    {
      "uri": "textures/aiStandardSurface1_baseColor.png"
    },
    {
      "uri": "textures/aiStandardSurface1_metallicRoughness.png"
    },
    {
      "uri": "textures/aiStandardSurface1_normal.png"
    },
    {
      "uri": "textures/aiStandardSurface2_baseColor.png"
    },
    {
      "uri": "textures/aiStandardSurface2_metallicRoughness.png"
    },
    {
      "uri": "textures/aiStandardSurface2_normal.png"
    },
    {
      "uri": "textures/aiStandardSurface4_baseColor.png"
    },
    {
      "uri": "textures/aiStandardSurface4_metallicRoughness.png"
    },
    {
      "uri": "textures/aiStandardSurface4_normal.png"
    },
    {
      "uri": "textures/aiStandardSurface3_baseColor.png"
    },
    {
      "uri": "textures/aiStandardSurface3_metallicRoughness.png"
    },
    {
      "uri": "textures/aiStandardSurface3_normal.png"
    }
  ],
  "materials": [
    {
      "doubleSided": true,
      "name": "lambert3",
      "normalTexture": {
        "index": 2
      },
      "pbrMetallicRoughness": {
        "baseColorTexture": {
          "index": 0
        },
        "metallicRoughnessTexture": {
          "index": 1
        }
      }
    },
    {
      "doubleSided": true,
      "name": "aiStandardSurface1",
      "normalTexture": {
        "index": 5
      },
      "pbrMetallicRoughness": {
        "baseColorTexture": {
          "index": 3
        },
        "metallicRoughnessTexture": {
          "index": 4
        }
      }
    },
    {
      "doubleSided": true,
      "name": "aiStandardSurface2",
      "normalTexture": {
        "index": 8
      },
      "pbrMetallicRoughness": {
        "baseColorTexture": {
          "index": 6
        },
        "metallicRoughnessTexture": {
          "index": 7
        }
      }
    },
    {
      "doubleSided": true,
      "name": "aiStandardSurface4",
      "normalTexture": {
        "index": 11
      },
      "pbrMetallicRoughness": {
        "baseColorTexture": {
          "index": 9
        },
        "metallicRoughnessTexture": {
          "index": 10
        }
      }
    },
    {
      "doubleSided": true,
      "name": "aiStandardSurface3",
      "normalTexture": {
        "index": 14
      },
      "pbrMetallicRoughness": {
        "baseColorTexture": {
          "index": 12
        },
        "metallicRoughnessTexture": {
          "index": 13
        }
      }
    }
  ],
  "meshes": [
    {
      "name": "polySurface58_lambert3_0",
      "primitives": [
        {
          "attributes": {
            "NORMAL": 1,
            "POSITION": 0,
            "TANGENT": 2,
            "TEXCOORD_0": 3
          },
          "indices": 4,
          "material": 0,
          "mode": 4
        }
      ]
    },
    {
      "name": "polySurface49_aiStandardSurface1_0",
      "primitives": [
        {
          "attributes": {
            "NORMAL": 6,
            "POSITION": 5,
            "TANGENT": 7,
            "TEXCOORD_0": 8
          },
          "indices": 9,
          "material": 1,
          "mode": 4
        }
      ]
    },
    {
      "name": "polySurface68_aiStandardSurface2_0",
      "primitives": [
        {
          "attributes": {
            "NORMAL": 11,
            "POSITION": 10,
            "TANGENT": 12,
            "TEXCOORD_0": 13
          },
          "indices": 14,
          "material": 2,
          "mode": 4
        }
      ]
    },
    {
      "name": "polySurface81_aiStandardSurface4_0",
      "primitives": [
        {
          "attributes": {
            "NORMAL": 16,
            "POSITION": 15,
            "TANGENT": 17,
            "TEXCOORD_0": 18
          },
          "indices": 19,
          "material": 3,
          "mode": 4
        }
      ]
    },
    {
      "name": "polySurface55_lambert3_0",
      "primitives": [
        {
          "attributes": {
            "NORMAL": 21,
            "POSITION": 20,
            "TANGENT": 22,
            "TEXCOORD_0": 23
          },
          "indices": 24,
          "material": 0,
          "mode": 4
        }
      ]
    },
    {
      "name": "polySurface76_aiStandardSurface3_0",
      "primitives": [
        {
          "attributes": {
            "NORMAL": 26,
            "POSITION": 25,
            "TANGENT": 27,
            "TEXCOORD_0": 28
          },
          "indices": 29,
          "material": 4,
          "mode": 4
        }
      ]
    }
  ],
  "nodes": [
    {
      "children": [
        1
      ],
      "matrix": [
        0.6393768787384033,
        0.0,
        0.0,
        0.0,
        0.0,
        1.4197018643766842e-16,
        -0.6393768787384033,
        0.0,
        0.0,
        0.6393768787384033,
        1.4197018643766842e-16,
        0.0,
        0.0,
        0.0,
        0.0,
        1.0
      ],
      "name": "Sketchfab_model"
    },
    {
      "children": [
        2
      ],
      "matrix": [
        1.0,
        0.0,
        0.0,
        0.0,
        0.0,
        0.0,
        1.0,
        0.0,
        0.0,
        -1.0,
        0.0,
        0.0,
        0.0,
        0.0,
        0.0,
        1.0
      ],
      "name": "cab68025621d449ca96e0e4fba5325d6.fbx"
    },
    {
      "children": [
        3,
        6,
        8,
        10,
        12,
        14
      ],
      "name": "RootNode"
    },
    {
      "children": [
        4
      ],
      "matrix": [
        0.4000000059604645,
        0.0,
        0.0,
        0.0,
        0.0,
        0.4000000059604645,
        0.0,
        0.0,
        0.0,
        0.0,
        0.4000000059604645,
        0.0,
        -0.4291834235191345,
        -0.027919922024011612,
        -0.0008242034818977118,
        1.0
      ],
      "name": "sweep15"
    },
    {
      "children": [
        5
      ],
      "name": "polySurface58"
    },
    {
      "mesh": 0,
      "name": "polySurface58_lambert3_0"
    },
    {
      "children": [
        7
      ],
      "matrix": [
        0.009999999776482582,
        0.0,
        0.0,
        0.0,
        0.0,
        0.009999999776482582,
        0.0,
        0.0,
        0.0,
        0.0,
        0.009999999776482582,
        0.0,
        0.0,
        0.0,
        0.0,
        1.0
      ],
      "name": "polySurface49"
    },
    {
      "mesh": 1,
      "name": "polySurface49_aiStandardSurface1_0"
    },
    {
      "children": [
        9
      ],
      "matrix": [
        0.009999999776482582,
        0.0,
        0.0,
        0.0,
        0.0,
        0.009999999776482582,
        0.0,
        0.0,
        0.0,
        0.0,
        0.009999999776482582,
        0.0,
        4.440892098500626e-16,
        -5.684341886080802e-14,
        0.0,
        1.0
      ],
      "name": "polySurface68"
    },
    {
      "mesh": 2,
      "name": "polySurface68_aiStandardSurface2_0"
    },
    {
      "children": [
        11
      ],
      "matrix": [
        0.009999999776482582,
        0.0,
        0.0,
        0.0,
        0.0,
        0.009999999776482582,
        0.0,
        0.0,
        0.0,
        0.0,
        0.009999999776482582,
        0.0,
        0.0,
        0.0,
        0.0,
        1.0
      ],
      "name": "polySurface81"
    },
    {
      "mesh": 3,
      "name": "polySurface81_aiStandardSurface4_0"
    },
    {
      "children": [
        13
      ],
      "matrix": [
        0.009999999776482582,
        0.0,
        0.0,
        0.0,
        0.0,
        0.009999999776482582,
        0.0,
        0.0,
        0.0,
        0.0,
        0.009999999776482582,
        0.0,
        0.0,
        0.0,
        0.0,
        1.0
      ],
      "name": "polySurface55"
    },
    {
      "mesh": 4,
      "name": "polySurface55_lambert3_0"
    },
    {
      "children": [
        15
      ],
      "matrix": [
        0.009999999776482582,
        0.0,
        0.0,
        0.0,
        0.0,
        0.009999999776482582,
        0.0,
        0.0,
        0.0,
        0.0,
        0.009999999776482582,
        0.0,
        0.0,
        0.0,
        -4.440892098500626e-16,
        1.0
      ],
      "name": "polySurface76"
    },
    {
      "mesh": 5,
      "name": "polySurface76_aiStandardSurface3_0"
    }
  ],
  "samplers": [
    {
      "magFilter": 9729,
      "minFilter": 9987,
      "wrapS": 10497,
      "wrapT": 10497
    }
  ],
  "scene": 0,
  "scenes": [
    {
      "name": "Sketchfab_Scene",
      "nodes": [
        0
      ]
    }
  ],
  "textures": [
    {
      "sampler": 0,
      "source": 0
    },
    {
      "sampler": 0,
      "source": 1
    },
    {
      "sampler": 0,
      "source": 2
    },
    {
      "sampler": 0,
      "source": 3
    },
    {
      "sampler": 0,
      "source": 4
    },
    {
      "sampler": 0,
      "source": 5
    },
    {
      "sampler": 0,
      "source": 6
    },
    {
      "sampler": 0,
      "source": 7
    },
    {
      "sampler": 0,
      "source": 8
    },
    {
      "sampler": 0,
      "source": 9
    },
    {
      "sampler": 0,
      "source": 10
    },
    {
      "sampler": 0,
      "source": 11
    },
    {
      "sampler": 0,
      "source": 12
    },
    {
      "sampler": 0,
      "source": 13
    },
    {
      "sampler": 0,
      "source": 14
    }
  ]
}
